<?xml version="1.0" encoding="utf-8"?>
<!-- Generator: Adobe Illustrator 19.0.0, SVG Export Plug-In . SVG Version: 6.00 Build 0)  -->
<svg version="1.1" id="Layer_1" xmlns="http://www.w3.org/2000/svg" xmlns:xlink="http://www.w3.org/1999/xlink" x="0px" y="0px"
	 viewBox="0 0 143.1 143.1" style="enable-background:new 0 0 143.1 143.1;" xml:space="preserve">
<style type="text/css">
	.st0{fill:#E8A169;}
	.st1{fill:#E08850;}
	.st2{fill:#F8D099;}
	.st3{fill:#EFB880;}
</style>
<g id="XMLID_1_">
	<path id="XMLID_29_" class="st0" d="M138.6,143.1c-46.2,0-92.4,0-138.6,0C0,95.4,0,47.7,0,0c46.2,0,92.4,0,138.6,0
		c0,2.9,0,5.9,0,8.9c-1.6,0-3,0-4.5,0c0-1.5,0-2.9,0-4.4C122.5,4.1,7,4.3,4.6,4.7c0,44.6,0,89.2,0,133.8
		c9.3,0.4,127.1,0.2,129.6-0.2c0-1.4,0-2.8,0-4.2c1.5,0,2.9,0,4.5,0C138.6,137.2,138.6,140.2,138.6,143.1z"/>
	<path id="XMLID_28_" class="st1" d="M138.6,143.1c0-2.9,0-5.9,0-8.9c-1.6,0-3,0-4.5,0c0-2.9,0-5.9,0-8.9c-3.1,0-6,0-8.9,0
		c0-1.4,0-2.9,0-4.5c1.6,0,3,0,4.5,0c3,0,5.9,0,8.9,0c0.4-10.5,0.2-95.9-0.2-98.4c-2.9,0-5.8,0-8.7,0c-1.4,0-2.9,0-4.5,0
		c0-1.6,0-3,0-4.5c2.9,0,5.9,0,8.9,0c0-3.1,0-6,0-8.9c1.5,0,2.9,0,4.5,0c0-3.1,0-6,0-8.9c1.5,0,3,0,4.5,0c0,47.7,0,95.4,0,143.1
		C141.6,143.1,140.1,143.1,138.6,143.1z"/>
	<path id="XMLID_27_" class="st2" d="M125.2,125.2c2.9,0,5.9,0,8.9,0c0,3.1,0,6,0,8.9c0,1.4,0,2.8,0,4.2
		c-2.5,0.4-120.2,0.6-129.6,0.2c0-44.6,0-89.2,0-133.8c2.4-0.4,118-0.6,129.6-0.2c0,1.4,0,2.9,0,4.4c0,2.9,0,5.9,0,8.9
		c-3.1,0-6,0-8.9,0c0-1.5,0-2.9,0-4.5c-34.4,0-68.6,0-102.8,0c0-1.5,0-2.9,0-4.3c-1.6,0-3,0-4.5,0c0,3,0,5.8,0,8.8c-3,0-5.9,0-8.8,0
		c0,1.5,0,2.9,0,4.4c1.5,0,3,0,4.4,0c0,32.8,0,65.6,0,98.4c-1.5,0-2.9,0-4.3,0c0,1.6,0,3,0,4.5c3,0,5.8,0,8.8,0c0,3,0,5.9,0,8.8
		c1.5,0,2.9,0,4.4,0c0-1.5,0-3,0-4.4c34.1,0,68.3,0,102.4,0c0.1,0,0.2,0,0.2-0.1c0.1,0,0.1-0.1,0.2-0.2
		C125.2,128,125.2,126.6,125.2,125.2z"/>
	<path id="XMLID_26_" class="st3" d="M22.4,13.4c34.2,0,68.4,0,102.8,0c0,1.5,0,3,0,4.5c0,1.4,0,2.9,0,4.5c1.6,0,3,0,4.5,0
		c0,32.8,0,65.6,0,98.4c-1.4,0-2.9,0-4.5,0c0,1.6,0,3,0,4.5c0,1.4,0,2.8,0,4.2c-0.1,0.1-0.1,0.1-0.2,0.2c-0.1,0-0.2,0.1-0.2,0.1
		c-34.1,0-68.3,0-102.4,0c0-2.9,0-5.9,0-8.9c-3.1,0-6,0-8.9,0c0-32.8,0-65.6,0-98.4c2.9,0,5.9,0,8.9,0
		C22.4,19.3,22.4,16.3,22.4,13.4z"/>
	<path id="XMLID_25_" class="st0" d="M129.7,120.7c0-32.8,0-65.6,0-98.4c2.9,0,5.8,0,8.7,0c0.4,2.5,0.6,87.8,0.2,98.4
		C135.6,120.7,132.6,120.7,129.7,120.7z"/>
	<path id="XMLID_24_" class="st1" d="M22.4,13.4c0,2.9,0,5.9,0,8.9c-3.1,0-6,0-8.9,0c-1.5,0-2.9,0-4.4,0c0-1.5,0-2.9,0-4.4
		c2.9,0,5.8,0,8.8,0c0-3,0-5.9,0-8.8c1.5,0,2.9,0,4.5,0C22.4,10.5,22.4,12,22.4,13.4z"/>
	<path id="XMLID_23_" class="st1" d="M13.4,120.7c2.9,0,5.9,0,8.9,0c0,3.1,0,6,0,8.9c0,1.5,0,2.9,0,4.4c-1.5,0-2.9,0-4.4,0
		c0-2.9,0-5.8,0-8.8c-3,0-5.9,0-8.8,0c0-1.5,0-2.9,0-4.5C10.5,120.7,12,120.7,13.4,120.7z"/>
</g>
</svg>
