<?xml version="1.0" encoding="utf-8"?>
<!-- Generator: Adobe Illustrator 19.0.0, SVG Export Plug-In . SVG Version: 6.00 Build 0)  -->
<svg version="1.1" id="Layer_1" xmlns="http://www.w3.org/2000/svg" xmlns:xlink="http://www.w3.org/1999/xlink" x="0px" y="0px"
	 viewBox="0 0 288 288" style="enable-background:new 0 0 288 288;" xml:space="preserve">
<style type="text/css">
	.st0{fill:#F8D014;}
	.st1{fill:#A84324;}
	.st2{fill:#F58020;}
	.st3{fill:#D06A28;}
	.st4{fill:#282828;}
	.st5{fill:#F7911F;}
	.st6{fill:#F7F8F8;}
</style>
<g id="XMLID_1_">
	<path id="XMLID_232_" class="st0" d="M0,192c7.5,0,14.9,0,22.4,0c3.7-3.1,0.3-7.6,2-10.9c3.3-2.3,6.9-0.1,10.7-1.7
		c-0.2,0.2,0.4-0.1,0.4-0.5c0-23.3,0-46.5,0-69.8c-3.1-2.4-6.7-0.1-11.1-2c-2.5-2.2,0.8-6.6-1.4-11.1C15.7,96,7.8,96,0,96
		c0-4,0-8,0-12c12,0,24,0,36,0c0.6,0.5,1.3,0.9,1.9,1.4c6.7,7.5,16.1,13.5,14.4,25.7c0.3,21.9,0.4,43.7,0.1,65.6
		c1.6,12.2-7.6,18.4-14.4,25.9c-0.6,0.5-1.3,0.9-1.9,1.4c-12,0-24,0-36,0C0,200,0,196,0,192z"/>
	<path id="XMLID_231_" class="st0" d="M288,96c-7.5,0-14.9,0-22.5,0c-3.4,3.1-0.1,7.6-2.1,11.1c-3.1,1.8-6.6,0.4-9.9,0.9
		c-0.4,0.3-1,0.7-1,1.1c0,23.3,0,46.5,0,69.9c3.1,2.1,6.7,0.6,10,1c3.6,3.1,0.3,7.5,2.5,12c7.4,0,15.3,0,23.1,0c0,4,0,8,0,12
		c-12,0-24,0-36,0c-0.6-0.5-1.3-0.9-1.9-1.4c-6.7-7.5-16.1-13.5-14.4-25.7c-0.3-21.9-0.4-43.7-0.1-65.6
		c-1.6-12.2,7.6-18.4,14.4-25.9c0.6-0.5,1.3-0.9,1.9-1.4c12,0,24,0,36,0C288,88,288,92,288,96z"/>
	<path id="XMLID_230_" class="st0" d="M156,0c0,8,0,16,0,24c-0.6,0.5-1.1,1.1-1.7,1.7c-6.9,2.8-13.8,2.8-20.7,0
		c-0.6-0.6-1.1-1.1-1.7-1.7c0-8,0-16,0-24C140,0,148,0,156,0z"/>
	<path id="XMLID_229_" class="st0" d="M156,264c0,8,0,16,0,24c-8,0-16,0-24,0c0-8,0-16,0-24c0.6-0.5,1.1-1.1,1.7-1.7
		c6.9-2.8,13.8-2.8,20.7,0C154.9,262.8,155.4,263.4,156,264z"/>
	<path id="XMLID_228_" class="st0" d="M60,24c7.7,0,15.4,0,24,0c0,4.4,0,8.2,0,12c-0.4,0.6-0.9,1.2-1.3,1.8
		c-5.6,3.7-6.8,9.2-6.8,15.4c-0.1,6.3,0.8,12.9-3,18.7C67,75.6,63.3,81.5,58.2,86C50.5,88.8,43,89.4,36,84c0-3.5,0-7,0-10.5
		c3.1-3.4,7.6-0.2,11.1-2c1.9-3.2,0.5-6.7,1-10.2c3.2-3.2,7.6,0,11.9-2.5C60,47.6,60,35.8,60,24z"/>
	<path id="XMLID_227_" class="st0" d="M84,36c12,0,24,0,36,0c0.5,0.6,1,1.1,1.6,1.7c1.7,3.8,1.5,7.4-0.8,10.9c-6,2.9-9.5,8.5-14,13
		c-3.9,1.7-7.6,1.6-11.2-0.6c-3.2-3.6-5.9-7.7-9.8-10.8C80.8,46.1,79.9,41.3,84,36z"/>
	<path id="XMLID_226_" class="st0" d="M59.6,23.6c-3.4,0-7.2,0-11.2,0c0-3.7,0-7,0-10.5c3.4-2.7,7.2,0,11.2-1.6
		C59.6,16.4,59.6,20.2,59.6,23.6z"/>
	<path id="XMLID_225_" class="st0" d="M120,36c0-3.8,0-7.5,0-12c4.5,0,8.2,0,12,0c3.1,4,3,8,0.8,11.6C128,39.4,124,38.9,120,36z"/>
	<path id="XMLID_224_" class="st0" d="M228,24c0,11.4,0,22.9,0,34.4c3.1,3.5,7.5,0.3,11.1,2.1c2,3,0.5,6.5,0.9,10
		c3.1,3.4,7.5,0.1,11.3,2.2c1.6,3.5,0.1,7.5,0.6,11.3c-6.9,5.3-14.3,4.7-22,2.1c-5.3-4.2-8.7-10.5-14.7-14c-4-5.7-3.1-12.4-3.2-18.7
		c-0.1-6.2-1.1-11.9-6.8-15.6c-0.4-0.6-0.8-1.2-1.2-1.8c0-3.8,0-7.6,0-12C212.5,24,220.3,24,228,24z"/>
	<path id="XMLID_223_" class="st0" d="M168,36c12,0,24,0,36,0c4.1,5.2,3.3,10-1.6,14c-3.8,3.1-6.6,7.1-9.7,10.8
		c-3.6,2.3-7.3,2.5-11.2,0.9c-4.7-4.3-8-10.2-14.1-13c-2.5-3.5-2.7-7.1-1-11C166.9,37.1,167.4,36.6,168,36z"/>
	<path id="XMLID_222_" class="st0" d="M228.4,23.6c0-3.4,0-7.2,0-11.2c3.7,0,7,0,10.6,0c1.6,3.4,1,7.1,0.4,11.2
		C235.6,23.6,231.8,23.6,228.4,23.6z"/>
	<path id="XMLID_221_" class="st0" d="M156,24c3.8,0,7.5,0,12,0c0,4.5,0,8.2,0,12c-4,2.9-8,3.4-12.1,0.1C152.6,32,153.1,28,156,24z"
		/>
	<path id="XMLID_220_" class="st0" d="M120,252c-12,0-24,0-36,0c-0.5-0.6-1-1.1-1.5-1.6c-4.6-13,10.6-14.6,13.4-23.5
		c3.6-2.1,7.2-2.2,10.9-0.5c4.5,4.5,7.8,10.2,13.9,13c2.4,3.5,2.6,7.1,0.9,10.9C121.1,250.8,120.5,251.4,120,252z"/>
	<path id="XMLID_219_" class="st0" d="M84,252c0,3.8,0,7.6,0,12c-8.6,0-16.3,0-24,0c0-12,0-24,0-36c0.6-0.5,1.2-1,1.7-1.6
		c4.1-1.8,7.8-1.1,11.4,2.3C77.1,235.9,74.9,246.7,84,252z"/>
	<path id="XMLID_218_" class="st0" d="M60,228c-3.8,0-7.6,0-11.7,0c-0.2-4.1-0.4-7.4-0.5-10.8c-3.2-3-7.5,0.2-11.8-2.4
		c0-3.3,0-7,0-10.8c8-5.7,16.1-5.5,24.3-0.4C65.6,211.8,65.7,219.9,60,228z"/>
	<path id="XMLID_217_" class="st0" d="M132,264c-3.8,0-7.5,0-12,0c0-4.5,0-8.2,0-12c4-2.9,8-3.4,12.1-0.1
		C135.4,255.9,134.9,260,132,264z"/>
	<path id="XMLID_216_" class="st0" d="M59.6,264.4c0,3.4,0,7.2,0,11.2c-3.7,0-7,0-10.6,0c-1.6-3.4-1-7.1-0.4-11.2
		C52.4,264.4,56.2,264.4,59.6,264.4z"/>
	<path id="XMLID_215_" class="st0" d="M228,228c0,12,0,24,0,36c-7.7,0-15.4,0-24,0c0-4.4,0-8.2,0-12c0.4-0.6,0.9-1.2,1.3-1.8
		c8.3-4.6,5.9-14,9.1-20.6c3.4-4.4,7.4-5,12-3.1C226.9,226.9,227.4,227.5,228,228z"/>
	<path id="XMLID_214_" class="st0" d="M204,252c-12,0-24,0-36,0c-0.5-0.6-1-1.1-1.6-1.7c-1.7-3.8-1.5-7.4,0.8-10.9
		c6-2.9,9.5-8.5,14-13c3.9-1.7,7.6-1.6,11.2,0.6c3.2,3.6,5.9,7.7,9.8,10.8C207.2,241.8,208.1,246.7,204,252z"/>
	<path id="XMLID_213_" class="st0" d="M252,204c0,3.8,0,7.6,0,11.7c-4.1,0.2-7.4,0.4-10.8,0.5c-3,3.2,0.2,7.5-2.4,11.8
		c-3.3,0-7,0-10.8,0c-5.7-8-5.5-16.1-0.4-24.3C235.8,198.4,243.9,198.3,252,204z"/>
	<path id="XMLID_212_" class="st0" d="M168,252c0,3.8,0,7.5,0,12c-4.5,0-8.2,0-12,0c-2.9-4-3.4-8-0.1-12.1
		C160,248.6,164,249.1,168,252z"/>
	<path id="XMLID_211_" class="st0" d="M228.4,264.4c3.4,0,7.2,0,11.2,0c0,3.7,0,7,0,10.6c-3.4,1.6-7.1,1-11.2,0.4
		C228.4,271.5,228.4,267.8,228.4,264.4z"/>
	<path id="XMLID_210_" class="st1" d="M48,180c0-24,0-48,0-72c4.5-3.2,8.9-3.5,13.1,0.6c5.6,23.6,5.5,47.2,0.1,70.8
		C57,183.4,52.6,183.2,48,180z"/>
	<path id="XMLID_209_" class="st2" d="M60,108c-4,0-8,0-12,0c0-3.5,0-6.9,0-10.4c-1.3-2.1-3.4-1.6-5.3-1.6c-1.9,0-3.8,0-5.8,0
		c-2-4.2-0.5-8.2-1-12c8,0,16,0,24,0c0.5,0.6,1.1,1.1,1.7,1.7c2.8,6.9,2.8,13.8,0,20.7C61.1,106.9,60.6,107.4,60,108z"/>
	<path id="XMLID_208_" class="st2" d="M48,180c4,0,8,0,12,0c0.5,0.6,1.1,1.1,1.7,1.7c2.8,6.9,2.8,13.8,0,20.7
		c-0.6,0.6-1.1,1.1-1.7,1.7c-8,0-16,0-24,0c0-3.5,0-6.9,0-10.5c3.1-3.3,7.6-0.1,11.4-2.2C49,187.8,47.5,183.8,48,180z"/>
	<path id="XMLID_207_" class="st1" d="M240,108c0,24,0,48,0,72c-4.5,3.2-8.9,3.5-13.1-0.6c-5.6-23.6-5.5-47.2-0.1-70.8
		C231,104.5,235.4,104.7,240,108z"/>
	<path id="XMLID_206_" class="st2" d="M240,108c-4,0-8,0-12,0c-0.5-0.6-1.1-1.1-1.7-1.7c-2.8-6.9-2.8-13.8,0-20.7
		c0.6-0.6,1.1-1.1,1.7-1.7c8,0,16,0,24,0c0,3.5,0,6.9,0,10.5c-3.1,3.4-7.5,0.2-11.3,2.1C239,100.2,240.5,104.2,240,108z"/>
	<path id="XMLID_205_" class="st2" d="M228,180c4,0,8,0,12,0c0,3.5,0,6.9,0,10.5c3.1,3.3,7.6,0.1,11.4,2.2c1.6,3.5,0.1,7.5,0.6,11.3
		c-8,0-16,0-24,0c-0.5-0.6-1.1-1.1-1.7-1.7c-2.8-6.9-2.8-13.8,0-20.7C226.8,181.1,227.4,180.5,228,180z"/>
	<path id="XMLID_204_" class="st2" d="M156,24c0,3.8,0,7.5,0,12c4.5,0,8.2,0,12,0c0,4,0,8,0,12c-16,7.2-32,7.2-48,0c0-4,0-8,0-12
		c3.8,0,7.5,0,12,0c0-4.5,0-8.2,0-12C140,24,148,24,156,24z"/>
	<path id="XMLID_203_" class="st2" d="M168,252c-3.8,0-7.5,0-12,0c0,4.5,0,8.2,0,12c-8,0-16,0-24,0c0-3.8,0-7.5,0-12
		c-4.5,0-8.2,0-12,0c0-4,0-8,0-12c16-7.2,32-7.2,48,0C168,244,168,248,168,252z"/>
	<path id="XMLID_202_" class="st2" d="M84,36c0,3.5,0,6.9,0,10.5c3.1,3.3,7.6,0.1,11.4,2.2C97,52.2,95.5,56.2,96,60
		c-4.6,3.6-8.9,7.5-11.9,12.6c-3.3,2.3-6.8,2.5-10.5,0.9c-0.6-0.5-1.1-1-1.6-1.6c0-11.7,0-23.4,0-36C76.4,36,80.2,36,84,36z"/>
	<path id="XMLID_201_" class="st2" d="M60,84c0-3.8,0-7.5,0-12c4.5,0,8.2,0,12,0c3.1,4,3.4,8.1,0.3,12.3C68.1,87.4,64,87.1,60,84z"
		/>
	<path id="XMLID_200_" class="st1" d="M120,48c16,0,32,0,48,0c3.8,0,7.5,0,12,0c0,4.5,0,8.2,0,12c-0.7,0.6-1.4,1.2-2,1.9
		c-22.6,4-45.3,4.1-68,0c-0.7-0.6-1.3-1.3-2-1.9c0-3.8,0-7.5,0-12C112.5,48,116.2,48,120,48z"/>
	<path id="XMLID_199_" class="st1" d="M84,72c0-3.8,0-7.5,0-12c4.5,0,8.2,0,12,0c4,0,8,0,12,0c3.1,4,3.1,8,0.4,12.2
		c-7.2,4.9-14.6,4.8-22.3,1.7C85.4,73.3,84.7,72.6,84,72z"/>
	<path id="XMLID_198_" class="st2" d="M192,60c0-3.5,0-6.9,0-10.5c3.1-3.3,7.6-0.1,11.4-2.2c1.6-3.5,0.1-7.5,0.6-11.3
		c3.8,0,7.6,0,12,0c0,12.6,0,24.3,0,36c-0.5,0.5-1,1-1.5,1.5c-3.3,1.6-6.6,1.5-10,0c-1.1-0.7-2-1.7-2.7-2.8
		C200.4,65.5,195.3,63.5,192,60z"/>
	<path id="XMLID_197_" class="st2" d="M216,72c3.8,0,7.5,0,12,0c0,4.5,0,8.2,0,12c-3.1,2.9-6.7,3.3-10.7,1.9
		c-1.4-0.7-2.5-1.7-3.2-3.2C212.6,78.8,213,75.2,216,72z"/>
	<path id="XMLID_196_" class="st1" d="M192,60c3.8,0,7.5,0,12,0c0,4.5,0,8.2,0,12c-8,6.3-16.1,5.1-23.7,0.8
		C176.8,68,177.1,64,180,60C184,60,188,60,192,60z"/>
	<path id="XMLID_195_" class="st2" d="M60,228c0-8,0-16,0-24c3.3-2.8,6.9-3.3,10.8-1.5c4.5,4.2,7.5,10,13.4,12.8
		c2.9,5.2,7.3,9,11.8,12.7c0,3.5,0,6.9,0,10.5c-3.1,3.3-7.6,0.1-11.4,2.2c-1.6,3.5-0.1,7.5-0.6,11.3c-3.5,0-7,0-11,0
		c-2.5-7.5,0.1-15.4-1.4-23.2C67.8,227,63.8,228.5,60,228z"/>
	<path id="XMLID_194_" class="st1" d="M168,240c-16,0-32,0-48,0c-3.8,0-7.5,0-12,0c0-4.5,0-8.2,0-12c0.7-0.6,1.4-1.2,2-1.9
		c22.6-4,45.3-4.1,68,0c0.7,0.6,1.3,1.3,2,1.9c0,3.8,0,7.5,0,12C175.5,240,171.7,240,168,240z"/>
	<path id="XMLID_193_" class="st1" d="M96,228c-3.8,0-7.5,0-12,0c0-4.5,0-8.2,0-12c0.7-0.6,1.4-1.3,2.1-1.9
		c7.7-3.3,15.1-2.8,21.4,0.8c3.8,5.1,3.4,9.1,0.5,13.1C104,228,100,228,96,228z"/>
	<path id="XMLID_192_" class="st2" d="M228,204c0,8,0,16,0,24c-3.5,0-7,0-11,0c-2.5,7.5,0.1,15.4-1.4,23.2
		c-3.7,1.8-7.7,0.3-11.6,0.8c0-3.5,0-6.9,0-10.5c-3.1-3.3-7.6-0.1-11.4-2.2c-1.6-3.5-0.1-7.5-0.6-11.3c3.5-3.5,8.5-5.7,10-11.1
		c0.7-1.1,1.6-2.1,2.8-2.8c6.4-1.6,8.1-8.4,12.8-11.9C221.4,200.7,224.9,201.2,228,204z"/>
	<path id="XMLID_191_" class="st1" d="M204,216c0,3.8,0,7.5,0,12c-4.5,0-8.2,0-12,0c-4,0-8,0-12,0c-2.9-4-3.2-8,0.3-12.8
		C187.9,210.8,195.9,209.7,204,216z"/>
	<path id="XMLID_190_" class="st3" d="M60,180c0-24,0-48,0-72c3.2-2.9,6.9-3.3,10.8-1.8c1.4,0.7,2.4,1.7,3.2,3.1
		c2.1,4.5,1.2,9.6,2.5,14.3c1.3,4.7,6.5,5.7,8.9,9.4c2.1,3.6,2.5,7.6,2.6,11.7c0.3,7.6,0.3,15.3,0,22.9c-0.1,4.5-0.5,8.8-3.4,12.5
		c-3.5,3.3-7.9,3.8-12.4,3.9C67.7,184.1,63.5,183,60,180z"/>
	<path id="XMLID_189_" class="st1" d="M72,108c-4,0-8,0-12,0c0-8,0-16,0-24c4,0,8,0,12,0c0.6,0.6,1.2,1.3,1.8,1.9
		C76.5,93.5,77.6,101,72,108z"/>
	<path id="XMLID_188_" class="st1" d="M60,180c4,0,8,0,12,0c2.9,3.1,3.7,6.8,3.7,10.9c0,3.9-0.1,7.9-2.1,11.5
		c-0.6,0.6-1.1,1.1-1.7,1.7c-4,0-8,0-12,0C60,196,60,188,60,180z"/>
	<path id="XMLID_187_" class="st3" d="M228,108c0,24,0,48,0,72c-3.5,3-7.6,4-12.1,3.9c-4.5,0-8.8-0.5-12.4-3.6
		c-3-3.6-3.5-7.9-3.6-12.4c-0.3-7.6-0.3-15.3,0-22.9c0.1-4,0.4-8.1,2.4-11.7c2.1-3.4,6.4-4.4,8.5-7.9c2.5-4.9,0.8-10.7,3.1-15.7
		c0.7-1.4,1.7-2.6,3.1-3.4C220.9,104.6,224.6,105.1,228,108z"/>
	<path id="XMLID_186_" class="st1" d="M228,108c-4,0-8,0-12,0c-5.8-8-5.8-16,0-24c4,0,8,0,12,0C228,92,228,100,228,108z"/>
	<path id="XMLID_185_" class="st1" d="M216,180c4,0,8,0,12,0c0,8,0,16,0,24c-4,0-8,0-12,0c-0.5-0.6-1.1-1.1-1.6-1.7
		c-1.9-3.6-2-7.5-2.1-11.4C212.3,186.8,213.1,183,216,180z"/>
	<path id="XMLID_184_" class="st1" d="M72,84c0-4,0-8,0-12c4,0,8,0,12,0c3.1,4,2.9,8,0.9,11.5C80,87.4,76,86.9,72,84z"/>
	<path id="XMLID_183_" class="st3" d="M72,84c3.8,0,7.5,0,12,0c0-4.5,0-8.2,0-12c7.7,0,15.4,0,24,0c0-4.4,0-8.2,0-12c24,0,48,0,72,0
		c0,3.8,0,7.6,0,12c8.6,0,16.3,0,24,0c3.4,4.6,7.4,8.6,12,12c0,8,0,16,0,24c-5.2,4.2-10,3-14.1-1.6c-3-3.4-6-6.5-10.9-6.3
		c-15-0.6-19.5-15.6-32.7-23.1c-8.2-2.2-18.9-0.7-28.3-0.4c-13,6.9-17.6,22.7-33,23.4c-4.9-0.1-7.9,2.9-10.9,6.3
		C82,111,77.2,112.2,72,108C72,100,72,92,72,84z"/>
	<path id="XMLID_182_" class="st1" d="M216,84c-3.8,0-7.5,0-12,0c0-4.5,0-8.2,0-12c4,0,8,0,12,0C216,76,216,80,216,84z"/>
	<path id="XMLID_181_" class="st1" d="M84,216c-3.8,0-7.5,0-12,0c0-4.5,0-8.2,0-12c3.1-2.9,6.7-3.3,10.7-1.9
		c1.4,0.7,2.5,1.7,3.2,3.2C87.3,209.2,86.9,212.8,84,216z"/>
	<path id="XMLID_180_" class="st3" d="M84,216c0-4,0-8,0-12c3.7-4.1,8.8-4.5,13.7-4.5c30.8-0.4,61.6-0.4,92.4,0
		c4.5,0.1,8.9,0.6,12.9,3.2c4.4,4.2,4.3,8.7,0.9,13.4c-7.7,0-15.4,0-24,0c0,4.4,0,8.2,0,12c-24,0-48,0-72,0c0-3.8,0-7.6,0-12
		C99.4,216,91.7,216,84,216z"/>
	<path id="XMLID_179_" class="st1" d="M204,216c0-4,0-8,0-12c0.5-0.5,1.1-1,1.6-1.6c3.8-1.7,7.3-1.3,10.4,1.6c0,3.8,0,7.5,0,12
		C211.5,216,207.7,216,204,216z"/>
	<path id="XMLID_178_" class="st4" d="M204,204c-40,0-80,0-120,0c-2.8-2.9-3.2-6.3-2.2-10.1c0.5-1.3,1.3-2.4,2.4-3.3
		c1.8-1.4,4.4-1.7,5.5-4.1c-0.2-2.9-2.9-3.5-4.6-4.9c-0.4-0.5-0.8-1-1.2-1.5c0-4,0-8,0-12c4.8-4.4,10.8-4.7,16.8-4.7
		c28.8-0.2,57.6-0.2,86.4,0c6,0,12,0.3,16.8,4.7c0,4,0,8,0,12c-0.4,0.5-0.8,1-1.2,1.5c-1.7,1.5-4.3,2-4.6,4.8c1,2.5,3.6,2.8,5.5,4.2
		c1.1,0.9,1.9,2,2.5,3.3C207.3,197.6,206.8,201,204,204z"/>
	<path id="XMLID_177_" class="st4" d="M204,132c0,4,0,8,0,12c-8.4,11.6-18.9,17.9-34.2,16.5c-9.3-0.9-15.7-5.2-23.2-12.4
		C125.3,160.7,103,170.6,84,144c0-4,0-8,0-12c0.4-0.5,0.9-1,1.3-1.5c5.4-2,7.5-7,10.3-11.4c1.2-0.8,2.5-1.4,3.9-1.7
		c5-0.7,8.6,1.4,11.6,5.1c3.5,4.3,7.7,6.1,13.1,3.4c5.4-4.7,2.8-12.5,8.2-18.8c7-4.4,15.3-4.1,22.8-0.3c5.3,5.6,3.7,12.4,7.1,17.8
		c4.9,4.2,9.7,3.4,13.9-1.5c3-3.5,6.2-6.4,11.2-6c1.4,0.2,2.7,0.6,3.9,1.2c3.8,4,5.3,10.2,11.4,12.1C203.2,131,203.6,131.5,204,132z
		"/>
	<path id="XMLID_176_" class="st5" d="M84,144c3.5,0,7,0,10.5,0c3.4,3.1,0.1,7.6,2.3,11.5c11,0,22.3,0,34.2,0
		c2.9-2.6-0.4-7.1,1.7-11c7,0,14.3,0,22.2,0c3,2.6-0.3,7.1,1.6,11c11.1,0,22.4,0,34.4,0c2.9-2.6-0.4-7.1,1.7-10.9
		c3.5-1.6,7.5-0.1,11.3-0.6c0,8,0,16,0,24c-40,0-80,0-120,0C84,160,84,152,84,144z"/>
	<path id="XMLID_175_" class="st4" d="M72,108c3.5,0,6.9,0,10.5,0c3.3-3.1,0.1-7.6,2.2-11.4C88.2,95,92.2,96.5,96,96
		c5.7,8,5.7,16,0,24c-4.6,3.4-8.6,7.4-12,12c-3.8,0-7.6,0-12,0C72,123.4,72,115.7,72,108z"/>
	<path id="XMLID_174_" class="st4" d="M72,192c0-4,0-8,0-12c4,0,8,0,12,0c3.2,4,3.2,8,0,12C80,195.1,76,195.1,72,192z"/>
	<path id="XMLID_173_" class="st3" d="M72,192c4,0,8,0,12,0c0,4,0,8,0,12c-4,0-8,0-12,0C72,200,72,196,72,192z"/>
	<path id="XMLID_172_" class="st4" d="M192,96c3.5,0,6.9,0,10.5,0c3.3,3.1,0.1,7.6,2.2,11.4c3.5,1.6,7.5,0.1,11.3,0.6
		c0,7.7,0,15.4,0,24c-4.4,0-8.2,0-12,0c-3.4-4.6-7.4-8.6-12-12C186.3,112,186.3,104,192,96z"/>
	<path id="XMLID_171_" class="st4" d="M216,180c0,4,0,8,0,12c-4,3.2-8,3.2-12,0c-3.2-4-3.2-8,0-12C208,180,212,180,216,180z"/>
	<path id="XMLID_170_" class="st3" d="M204,192c4,0,8,0,12,0c0,4,0,8,0,12c-4,0-8,0-12,0C204,200,204,196,204,192z"/>
	<path id="XMLID_169_" class="st5" d="M192,96c0,8,0,16,0,24c-3.5,0-7,0-10.5,0c-3.4,3.1-0.2,7.6-2.2,11.5c-7.1,0-14.5,0-22.5,0
		c-2.1-7,0.2-14.9-1.2-23c-7.3,0-14.7,0-22.6,0c-2.5,6.9,0.3,14.9-1.4,23c-7.2,0-14.6,0-22.5,0c-2.8-2.6,0.4-7-1.6-10.8
		c-3.5-1.6-7.5-0.1-11.3-0.6c0-8,0-16,0-24c3.5,0,6.9,0,10.5,0c3.4-3.1,0.2-7.5,1.9-11c3.2-2.3,6.8-0.1,10.8-1.7
		c2.7-2.5-0.5-6.9,1.3-10.8c15.2,0,30.5,0,46.3,0c3.1,2.6-0.3,7,1.6,10.6c3.1,1.9,6.6,0.5,10,0.9c3.3,3.1,0.1,7.5,2.1,11.3
		C184.2,97,188.2,95.5,192,96z"/>
	<path id="XMLID_168_" class="st6" d="M132.2,191.5c0-3.9,0-7.2,0-11c7.5,0,14.9,0,22.7,0c2.1,3,0.9,6.8,0.6,11
		C148.2,191.5,140.9,191.5,132.2,191.5z"/>
	<path id="XMLID_167_" class="st6" d="M204,180c0,4,0,8,0,12c-3.5,0-6.9,0-10.6,0c-2.5-3.4-1.2-7.3-1-11.2
		C196.2,179,200.2,180.5,204,180z"/>
	<path id="XMLID_166_" class="st6" d="M167.1,180.2c5.2,0,8.6,0,11.8,0c2,3.4,0.7,6.9,1.1,10.4c-3.5,2.4-7.3,1.2-10.9,1
		C166.8,188.3,168.9,184.7,167.1,180.2z"/>
	<path id="XMLID_165_" class="st6" d="M120.9,191.7c-5.3,0-8.6,0-11.9,0c-2-3.4-0.7-6.9-1.1-10.4c3.5-2.5,7.3-1.2,10.9-1.1
		C121.3,183.6,119,187.2,120.9,191.7z"/>
	<path id="XMLID_164_" class="st6" d="M84,192c0-4,0-8,0-12c3.5,0,6.9,0,10.6,0c2.5,3.4,1.2,7.3,1,11.2C91.8,193,87.8,191.5,84,192z
		"/>
	<path id="XMLID_163_" class="st6" d="M192,120c3.8,0,7.5,0,12,0c0,4.5,0,8.2,0,12c-3.8,0-7.5,0-12,0C192,127.5,192,123.7,192,120z"
		/>
	<path id="XMLID_162_" class="st6" d="M84,132c0-3.8,0-7.5,0-12c4.5,0,8.2,0,12,0c0,3.8,0,7.5,0,12C91.5,132,87.7,132,84,132z"/>
</g>
</svg>
